<svg xmlns="http://www.w3.org/2000/svg" viewBox="0 0 786.46 768.46">
  <g data-name="Layer 2">
    <g data-name="Layer 1">
      <path d="M352.86 768.46c-.34-.49-.56-1.2-1-1.45-7.13-3.77-11.57-9.93-15.11-16.87a105.8 105.8 0 0 1-7.75-21.62c-.81-3.09-1.41-6.23-2.16-9.33a18.91 18.91 0 0 0-1-2.5c-1.2 1.64-2.1 2.94-3.07 4.18-3.64 4.66-7.18 9.4-11 13.92a47.19 47.19 0 0 1-11.57 10 24.2 24.2 0 0 1-10.75 3.77 18.42 18.42 0 0 1-16.8-7.38 30.48 30.48 0 0 1-5.2-10.71 76.9 76.9 0 0 1-2.78-18.47 215.5 215.5 0 0 1 1.47-33.5c.64-5.56 1.34-11.11 2-16.66a6.69 6.69 0 0 0-.14-1.4c-1.72.29-2.31 1.75-3.24 2.76-7 7.66-13.91 15.45-21.05 23a174.33 174.33 0 0 1-20.25 18.34 81.07 81.07 0 0 1-13.7 8.8 37 37 0 0 1-11.37 3.66c-9.77 1.33-18.15-3.29-22.08-12.36a37.21 37.21 0 0 1-2.76-15.46 97.92 97.92 0 0 1 2.22-18.53 234 234 0 0 1 7.11-25.87c.48-1.46.83-3 1.22-4.39-1.56-.9-2.39.16-3.3.6-6.17 3-12.26 6.2-18.49 9.09a67.28 67.28 0 0 1-14.09 4.65 34.3 34.3 0 0 1-11 .66c-7.18-.77-12.23-4.36-14.59-11.33a34.63 34.63 0 0 1-1.7-15.12 74.56 74.56 0 0 1 5.07-19.41 176.51 176.51 0 0 1 13.91-26.77c.8-1.3 1.54-2.63 2.7-4.64-1.81.54-2.85.79-3.86 1.15a359.7 359.7 0 0 1-35.13 11.25A129.91 129.91 0 0 1 81 594.38a40.72 40.72 0 0 1-15.18-1.57c-9.26-2.93-14.28-10.4-13.71-20.06a22.63 22.63 0 0 1 1.89-8.37 83.23 83.23 0 0 1 5.53-10.6 140.33 140.33 0 0 1 9.57-12.58 235.14 235.14 0 0 1 21.54-21.86c2.94-2.69 5.91-5.36 8.82-8-.21-1.31-1.13-1.05-1.85-1-7.52 0-15 .2-22.56.07a89.62 89.62 0 0 1-20.86-2.86 37.42 37.42 0 0 1-12.24-5.36 21.08 21.08 0 0 1-9.13-13.55 20.43 20.43 0 0 1 1.12-10.82 32.67 32.67 0 0 1 6.16-10.21 74.47 74.47 0 0 1 10.76-10.24 181 181 0 0 1 19-13c1-.63 2-1.37 3.69-2.53l-4.81-.84c-1.26-.21-2.52-.41-3.79-.59a244.25 244.25 0 0 1-33.33-6.78 88.43 88.43 0 0 1-15.65-6 36.22 36.22 0 0 1-10.42-7.53c-6.63-7.17-7.38-16.57-1.92-24.64a32.9 32.9 0 0 1 7.71-7.82 79.08 79.08 0 0 1 15.39-8.76c11.71-5.24 23.92-9 36.27-12.31 6.63-1.78 13.31-3.39 20.4-5.19a11 11 0 0 0-1.81-1.47c-7.47-3.63-15-7.08-22.44-10.86a103.78 103.78 0 0 1-17.31-11.15 53.37 53.37 0 0 1-11.92-12.4 26.58 26.58 0 0 1-4.69-13.4A21.85 21.85 0 0 1 33 293.81a37.65 37.65 0 0 1 12-6.91 91.32 91.32 0 0 1 20.49-4.82c1.1-.15 2.2-.35 3.29-.6.24-.05.41-.41.82-.84-1.2-1-2.36-2.07-3.58-3.05A176.58 176.58 0 0 1 47.35 261a145.89 145.89 0 0 1-9.53-11.37 28.33 28.33 0 0 1-4.82-9.82c-2-7.35-.38-13.54 5.65-18.46A35.57 35.57 0 0 1 50.4 215a64.75 64.75 0 0 1 17.95-2.83c9.64-.3 19.16.83 28.65 2.35a340.51 340.51 0 0 1 34.15 7.57c.6.16 1.21.26 2.46.53-.74-1.19-1.11-1.94-1.62-2.59-4.53-5.79-9.19-11.49-13.61-17.36a134.05 134.05 0 0 1-12.64-20.34 65 65 0 0 1-6.82-20.85 30.23 30.23 0 0 1 .9-12.35c3-10.37 11.18-17.7 24.11-18.58a61.16 61.16 0 0 1 19.45 2.28c.76.2 1.55.33 2.33.46.12 0 .26-.16.63-.4.22-1.49-.71-2.88-1.19-4.31a105.86 105.86 0 0 1-5-20 39 39 0 0 1 .49-14.29c2.55-10.61 11.31-17.19 22.82-16a47.91 47.91 0 0 1 16 4.88 128 128 0 0 1 18.82 11.45 343 343 0 0 1 31.83 26.22c4.84 4.43 9.56 9 14.34 13.46.92.86 1.89 1.67 3.12 2.76.5-1.78-.24-3.06-.52-4.31-2.28-10.29-4.78-20.53-7-30.84A213.84 213.84 0 0 1 236 71.06a73.8 73.8 0 0 1 1.68-22.86 39.31 39.31 0 0 1 3.19-8.49c4.85-9.26 14.82-14.42 26.45-10.16a40.5 40.5 0 0 1 11.22 6.35c2.87 2.29 5.56 4.81 8.31 7.25 1.06.93 2.09 1.91 3.41 3.12.44-1.4.79-2.43 1.09-3.47 1.31-4.6 2.34-9.31 4-13.78a51.67 51.67 0 0 1 5.26-10.18 28.77 28.77 0 0 1 6.14-6.65c7.25-5.59 15.11-6.52 23.48-2.85a34.18 34.18 0 0 1 10.44 7.54 76 76 0 0 1 10.47 13.68 181.15 181.15 0 0 1 15.12 31c4.33 11.34 8.24 22.83 12.33 34.26.32.9.64 1.8 1 2.67.11.23.47.34.89.64 1.36-5.49 2.67-10.92 4-16.33A394.43 394.43 0 0 1 398 38.33a131.77 131.77 0 0 1 9.7-20.83 50.62 50.62 0 0 1 8.09-10.67 24.45 24.45 0 0 1 7.44-5.17 17.64 17.64 0 0 1 17.78 1.65 27 27 0 0 1 7.71 8.44 66.17 66.17 0 0 1 6.72 15.32c1.2 3.81 2.21 7.67 3.4 11.87a22.86 22.86 0 0 0 2.24-1.69c2.85-2.79 5.56-5.74 8.53-8.41a41.33 41.33 0 0 1 13-8.08 27.91 27.91 0 0 1 12.68-2 24.71 24.71 0 0 1 19.26 11.9 42.24 42.24 0 0 1 5.39 13.26c2.31 9.72 2.73 19.6 2.37 29.54a318.7 318.7 0 0 1-5 44.74c-.17.92-.15 1.87-.23 2.85 1.75 0 2.25-1.4 3.07-2.28 9-9.57 17.77-19.29 26.86-28.74a216.82 216.82 0 0 1 25.61-23.13 142.78 142.78 0 0 1 12-7.91 28.91 28.91 0 0 1 10.33-3.68c7.88-1.26 14.72 2.54 17.69 10 1.7 4.25 1.86 8.71 1.7 13.21-.32 8.69-2.34 17.08-4.62 25.41-1.22 4.46-2.69 8.86-4 13.3a27.32 27.32 0 0 0-.49 3.23c1.82-.79 3.11-1.32 4.36-1.92a116.16 116.16 0 0 1 16.41-6.62 49.57 49.57 0 0 1 15.57-2.42 24.2 24.2 0 0 1 9.76 2.2A19.54 19.54 0 0 1 663 127.58a38.72 38.72 0 0 1-1.51 16.11 107 107 0 0 1-7.85 19 274.77 274.77 0 0 1-15.22 25.52c-.84 1.27-2 2.41-2.32 4.36a14.26 14.26 0 0 0 4.24-1.27A288.29 288.29 0 0 1 676 180c10.16-2.4 20.4-3.95 30.88-3.42a42.15 42.15 0 0 1 13.57 2.74 39.06 39.06 0 0 1 6.84 3.43c10 6.55 14.1 17.48 11.08 29.27a49.56 49.56 0 0 1-5.94 13.56 98.83 98.83 0 0 1-12.23 16c-3.49 3.74-7.17 7.3-10.75 11-.62.63-1.19 1.32-1.92 2.14 1.48 1 2.78.54 4 .67 5.88.64 11.79 1.07 17.63 2a35 35 0 0 1 13.84 5.03 19.45 19.45 0 0 1 8.09 9.81 18.33 18.33 0 0 1-.42 13.12 33.13 33.13 0 0 1-6 9.74 78.71 78.71 0 0 1-11.16 10.51 218.57 218.57 0 0 1-24.69 16.53c-1.35.81-2.69 1.64-4.35 2.65a7.67 7.67 0 0 0 4.24 1.3 285.67 285.67 0 0 1 29.79 5 121.82 121.82 0 0 1 23.78 7.32 82.41 82.41 0 0 1 11.37 6.13 34.4 34.4 0 0 1 7.11 6.36c6.69 7.84 7.52 17.74 2.54 26.81a37.09 37.09 0 0 1-10.22 11.3 76.91 76.91 0 0 1-14 8.35 177.65 177.65 0 0 1-28.82 10.41c-5.07 1.41-10.21 2.62-15.32 3.93-1.07.27-2.13.61-3.4 1 .53 1.27 1.6 1.48 2.51 1.92 7.19 3.49 14.48 6.79 21.5 10.58a132.86 132.86 0 0 1 14.52 9.29 51.67 51.67 0 0 1 7.6 7.27 16.41 16.41 0 0 1 4 8.06 15.45 15.45 0 0 1-5.12 15.19 29.7 29.7 0 0 1-9 5.32 76.94 76.94 0 0 1-18.56 4.62c-6.82.89-13.67 1.43-20.51 2.16-1.56.16-3.22-.12-4.67.94.64 1.65 2.27 2.19 3.47 3.16 7.2 5.85 14.61 11.45 21.57 17.56a163.14 163.14 0 0 1 13 13.39 47.89 47.89 0 0 1 7.85 12 30.06 30.06 0 0 1 2.76 9.13c1.12 9.57-2.57 16.86-10.53 22-4.65 3-9.93 4.34-15.37 5.06-8.63 1.13-17.24.52-25.83-.55a266.77 266.77 0 0 1-33.85-6.79c-.75-.19-1.54-.26-2.91-.48.82 1.36 1.3 2.26 1.88 3.09 4 5.75 8.27 11.38 12.14 17.24a85.44 85.44 0 0 1 9.52 19.31A44 44 0 0 1 690 612c-1.53 12.59-10.51 21.6-23.1 23.31-7.11 1-14 0-20.9-1.67-3.86-1-7.66-2.16-11.43-3.23-1.13.94-.36 1.85 0 2.64a134.55 134.55 0 0 1 6.6 20c1 4.36 1.69 8.78 2.25 13.21a28.8 28.8 0 0 1-1.58 13.23 19.66 19.66 0 0 1-18.12 13.39 36.18 36.18 0 0 1-15-2.59 95.84 95.84 0 0 1-18.17-9.65 260.31 260.31 0 0 1-28.71-22.44c-3.36-3-6.64-6-10-9-.7-.62-1.43-1.21-2.11-1.79-1.08.8-.43 1.54-.27 2.21 2.55 10.4 4.92 20.83 6.52 31.43a127.34 127.34 0 0 1 1.39 27.72 41.29 41.29 0 0 1-4.37 16.54 22.51 22.51 0 0 1-14.78 12.05 26.48 26.48 0 0 1-13.29-.18 43.73 43.73 0 0 1-13.75-6.62A101 101 0 0 1 495 716.27c-1.08-1.15-2.13-2.34-3.08-3.39-1.88.52-1.5 1.83-1.67 2.82-1.05 6.14-1.91 12.32-3.12 18.42a56.06 56.06 0 0 1-4.81 14 28.8 28.8 0 0 1-6.43 8.88c-5.79 5.19-12.41 6.23-19.65 3.77a26 26 0 0 1-8.9-5.55 61.94 61.94 0 0 1-10.29-12.59 167.66 167.66 0 0 1-12.16-23.37c-4.69-10.69-8.72-21.63-12.53-32.65-.49-1.42-.64-3.06-2.33-4.54-.59 2.43-1.09 4.38-1.54 6.33-3.33 14.65-7.08 29.18-12.38 43.27a107.63 107.63 0 0 1-7.76 17 104.86 104.86 0 0 1-6.69 9.91 30.9 30.9 0 0 1-9 7.84 24.9 24.9 0 0 0-2.57 2Zm40.65-606.36c-122.09-.54-223 98.76-223.14 222.39-.13 122.43 99.2 222.8 222.76 222.83 123.77 0 222.71-100.44 222.91-222.21.2-123.33-100.19-223.2-222.53-223.01Zm202.62 430.68c2.29 1.05 3.84 1.71 5.35 2.45 8.46 4.18 16.85 8.47 25.36 12.54a122.17 122.17 0 0 0 23.34 8.62 40.5 40.5 0 0 0 13.28 1.44c5.68-.5 8.73-3.57 9-9.25a24.85 24.85 0 0 0-.46-5.7c-1.11-5.88-3.68-11.21-6.57-16.38a166.6 166.6 0 0 0-16.18-23.17c-9.68-11.94-20.43-22.9-31.17-33.86a4.91 4.91 0 0 0-1.14-.68c-3.36 2.59-6.46 5.38-9.94 7.57a58.23 58.23 0 0 1-10.7 5.3c-3.84 1.42-7.93 2.17-12.29 3.3.56 15.3-4.09 28.72-14.69 39.81s-23.53 16.6-39.3 17.05a25.53 25.53 0 0 0 1.69 2.27c15.18 15.81 30.6 31.36 47.33 45.54a205.83 205.83 0 0 0 23.39 17.54 59.68 59.68 0 0 0 12.78 6.52 34 34 0 0 0 6 1.52c2.53.34 4-.85 4.16-3.46a36.94 36.94 0 0 0-.41-9 132.57 132.57 0 0 0-4-14.78 226 226 0 0 0-12.35-29.09c-3.58-7.32-7.25-14.59-10.85-21.9-.47-1.13-.86-2.29-1.63-4.2Zm31.53-293.22c2.82 1.86 5.85 3.61 8.58 5.75a53 53 0 0 1 7.34 6.86 59.86 59.86 0 0 1 6.11 8.55c1.78 3 3.13 6.2 4.77 9.53 1.06-.44 1.94-.74 2.76-1.16 9.56-4.82 19.16-9.56 28.64-14.53A252.4 252.4 0 0 0 715 297.08c4.42-3.14 8.65-6.58 12.75-10.14a42.84 42.84 0 0 0 5.29-6.15 10.71 10.71 0 0 0 1-2.6c-2.8-2.53-6.14-3.08-9.4-3.69-7.42-1.4-14.94-1.46-22.46-1.34-10.24.15-20.44.91-30.63 2-5.24.54-10.51.88-15.77 1.27-.7.05-1.61.4-2.15-.89 2.26-2.12 4.87-3.92 7.32-5.91 10.4-8.48 20.92-16.84 31.2-25.47a132.22 132.22 0 0 0 18.47-18.78 106.12 106.12 0 0 0 7.39-10.59 28.67 28.67 0 0 0 3-7c1.4-4.83-.19-8.5-4.72-10.75a27.49 27.49 0 0 0-6.8-2.15c-6.54-1.32-13.07-.47-19.56.53a174.77 174.77 0 0 0-26.92 6.78c-21.18 6.85-41.37 16.08-61.43 25.62a8.38 8.38 0 0 0-1.52 1.3 54.4 54.4 0 0 1 21.42 17.79 51.64 51.64 0 0 1 9.8 25.09c.48 5.05 2.03 9-3.62 27.56Zm-446-132c-2.21-.8-3.38-1.14-4.48-1.64-7.13-3.23-14.23-6.52-21.36-9.73a99.25 99.25 0 0 0-20.37-6.92c-4.07-.84-8.17-1.57-12.36-.64-4 .88-6.2 3.11-6.41 7.21a29.78 29.78 0 0 0 .61 7.1 46.2 46.2 0 0 0 4.64 12 141.74 141.74 0 0 0 13.2 20.53C146 210 158.27 223.2 171 236a20.78 20.78 0 0 0 1.87 1.5c.64-.44 1.19-.75 1.68-1.15a51.06 51.06 0 0 1 25.1-11.1 13 13 0 0 0 2.74-1.07v-4a57.21 57.21 0 0 1 2.28-14.62c5.47-18.24 22.37-34.68 44.87-37.58.7-.1 1.64.21 2.08-1.07-.75-.86-1.51-1.85-2.38-2.73-4.84-4.88-9.65-9.79-14.56-14.59-12.58-12.28-25.47-24.22-39.36-35a154 154 0 0 0-19-13 46.38 46.38 0 0 0-10.91-4.86 21.66 21.66 0 0 0-4.22-.72 2.61 2.61 0 0 0-3.12 2.3 16.27 16.27 0 0 0-.43 4.27 66.24 66.24 0 0 0 .93 8.07 95.37 95.37 0 0 0 6.54 20.49c4.4 10.09 9.12 20.05 13.69 30.07.81 1.79 1.57 3.5 2.85 6.36ZM159 299.46c-.59-1.77-1-3.12-1.49-4.46a49.93 49.93 0 0 1-2.51-11.66 53.54 53.54 0 0 1 5.73-29.7c.48-.93 1.39-1.79 1-3-.13-.17-.2-.34-.33-.41a13.39 13.39 0 0 0-1.73-.77c-22.27-7.5-44.78-14.15-68-17.82a116.71 116.71 0 0 0-27.25-1.35 30.14 30.14 0 0 0-11.53 2.94 17 17 0 0 0-2.61 2 21.28 21.28 0 0 0 1.28 2.82 32.47 32.47 0 0 0 3.3 4.7c3.34 3.65 6.7 7.31 10.3 10.69A231.25 231.25 0 0 0 89.34 273c10.27 7.33 20.68 14.48 31 21.73 1 .69 2.17 1.2 2.84 2.62-1.54.8-3 .57-4.34.58-7.68.06-15.35.05-23 .13A220.41 220.41 0 0 0 69 299.48a80.87 80.87 0 0 0-16.82 3.69A21.9 21.9 0 0 0 45 307c-2.26 1.94-2.63 3.62-1.53 6.38a20.2 20.2 0 0 0 4.74 6.57A66.65 66.65 0 0 0 60 329a178.62 178.62 0 0 0 22 11.67 462.31 462.31 0 0 0 45.61 17.49c.71.24 1.46.37 2.55.63-3.16-26.03 5.6-46.03 28.84-59.33Zm32.44 243c-.76.91-1.4 1.61-2 2.36-6.23 8.12-12.5 16.2-18.65 24.37a259.62 259.62 0 0 0-18.92 28.26c-3.14 5.55-6.08 11.25-8.65 17.08a76.26 76.26 0 0 0-4.09 12.74c-.81 3.37-1.15 6.91.32 10.4a7.18 7.18 0 0 0 1.94.21 57.27 57.27 0 0 0 6.09-1.28 103.15 103.15 0 0 0 18.13-7.6 325.24 325.24 0 0 0 28.09-16.52c7.64-5 15.24-10 22.86-15 1.3-.85 2.64-1.63 4.47-2.75a13 13 0 0 1-1.34 4.53c-4.74 11.69-9.6 23.33-14.17 35.09-5.15 13.25-9.68 26.72-12.5 40.7a62.62 62.62 0 0 0-1.52 16.65 22.53 22.53 0 0 0 .92 5.16c.73 2.35 2 3 4.41 2.41a20.5 20.5 0 0 0 5.36-2 114 114 0 0 0 10-6.52 154.57 154.57 0 0 0 17.87-16c16.88-17.09 32-35.71 46.63-54.7a17.73 17.73 0 0 0 1-1.62c-1.75-2.92-3.61-5.71-5.13-8.67s-2.68-6.07-4.11-9.39c-1.72.23-3.29.37-4.83.65a45.12 45.12 0 0 1-14.34.26c-15.51-2.2-27.89-9.76-37.12-22.38a51.57 51.57 0 0 1-9.84-29.55c-.05-1.54.48-3.2-.89-4.82Zm226.8 103.43c1.2 4 2.4 8.11 3.66 12.21 5.57 18.19 11.57 36.22 19.17 53.68a134.66 134.66 0 0 0 10.52 20.44 103.76 103.76 0 0 0 7 9.1 7.74 7.74 0 0 0 4.64 2.93 8.65 8.65 0 0 0 3.3-4.28 70.43 70.43 0 0 0 2.5-6.72 115 115 0 0 0 3.78-20.72c1.25-11.93 1.74-23.91 2-35.9.08-3.84.17-7.67.3-11.51a22.72 22.72 0 0 1 .51-2.83c1.23 1.49 2.06 2.39 2.78 3.38 5.86 8 11.62 16.07 17.55 24A133.45 133.45 0 0 0 512 708.09a100.4 100.4 0 0 0 10.79 8.73 26 26 0 0 0 7.38 3.32c3.23 1 5.68-.21 7.11-3.27a27 27 0 0 0 1.84-5.91 53.27 53.27 0 0 0 .62-14.81 210.31 210.31 0 0 0-4-27c-4.49-21.14-11-41.68-17.81-62.16a24.2 24.2 0 0 0-1.38-2.75c-.89 1.82-1.59 3.24-2.28 4.67-10 21-33.31 31.74-53.75 29.47a52.33 52.33 0 0 1-21.22-7 19.79 19.79 0 0 0-2.88-1.17c-2.88 3-5.37 5.91-8.26 8.4s-6.41 4.72-9.92 7.28ZM304.19 92.1c-1.22-1.27-2-1.95-2.64-2.77-4.36-5.72-8.54-11.58-13.07-17.17s-9.21-11.06-14.12-16.3a68 68 0 0 0-8.81-7.37 17.26 17.26 0 0 0-4.7-2.3 3 3 0 0 0-4.05 1.58 17.58 17.58 0 0 0-1.8 4.42 47.24 47.24 0 0 0-1.08 7.09 121.16 121.16 0 0 0 1.32 25.81c3.56 24.08 9.75 47.54 16.77 70.8.2.66.07 1.68 1 1.64 3.16-3.82 6.05-7.64 9.27-11.15a45.31 45.31 0 0 1 11.85-8.88 56.37 56.37 0 0 1 28.1-6.83 43.8 43.8 0 0 1 14.1 2.53c4.59 1.75 9 3.89 13.68 5.93 2.74-2.81 5.33-5.85 8.32-8.43s6.59-4.9 10.1-7.47c-3.36-10.67-6.52-21.22-10-31.66a307.3 307.3 0 0 0-16.66-41.3 93.09 93.09 0 0 0-9.92-16.37 45.48 45.48 0 0 0-5.85-6.31c-4.56-3.93-7.66-3.38-11.05 1.65a35.18 35.18 0 0 0-4.27 9.6 100.48 100.48 0 0 0-3.91 20.69c-.79 9.23-1.36 18.48-2 27.72-.13 1.39-.34 2.75-.58 4.85Zm90.89 25.39a7 7 0 0 0 1.37.49c15.6 1.2 28.57 7.49 38.43 19.82a12.51 12.51 0 0 0 1.86 1.55c1.54-.84 2.93-1.58 4.31-2.34a50.38 50.38 0 0 1 25.28-6.34 54.93 54.93 0 0 1 25.29 6.48c1 .55 2 1.66 3.56 1.1a15 15 0 0 0 .6-1.79c3.77-18.3 7-36.7 8.39-55.36.69-9.41.89-18.83-.55-28.21A33.64 33.64 0 0 0 500 41.05c-2.39-4.21-5.64-5.63-10-4a32 32 0 0 0-7.1 3.95 45.32 45.32 0 0 0-9.9 9.74c-4.05 5.34-8 10.8-11.7 16.36s-7.18 11.34-10.78 17c-.37.58-.6 1.55-1.95 1.18-.2-1-.48-2-.65-3.08-1.63-10.41-3.14-20.84-4.9-31.23a122.17 122.17 0 0 0-5.79-22.21 32.58 32.58 0 0 0-4.56-8.92 14.35 14.35 0 0 0-2-1.78 8.65 8.65 0 0 0-4.5 3.84c-2.17 3.35-4.32 6.73-6.15 10.26A147.1 147.1 0 0 0 411.63 53c-6.85 20.3-11.8 41.11-16.37 62a17 17 0 0 0-.18 2.49Zm-58.67 545.07a25.21 25.21 0 0 1 .84 2.81c.41 3.33.78 6.66 1.16 10 1.37 12.06 2.68 24.13 5 36.07 1.59 8.32 3.44 16.58 6.55 24.49a75 75 0 0 0 4.07 8.66 22.54 22.54 0 0 0 3.78 4.92c2.55 2.55 4.93 2.64 7.62.34a20.43 20.43 0 0 0 3.89-4.21 103.33 103.33 0 0 0 5.81-9.9 143.38 143.38 0 0 0 8.54-22.35 458.76 458.76 0 0 0 12.44-53.14c.5-2.78 1.47-5.52 1-8.69-1.78 0-3.51-.07-5.24-.14C376.21 650.8 363 645 352.73 633c-.42-.48-.79-1-1.22-1.48-1.32-1.44-1.94-1.6-3.73-.54a54 54 0 0 1-10.78 5.07c-13.93 4.46-27.43 3.18-40.56-3-1.54-.73-3.05-1.51-4.88-2.42-.41 1.77-.79 3.14-1 4.53-3.14 17-5.8 34-7.29 51.21a171.36 171.36 0 0 0-.32 30.64 35 35 0 0 0 2.58 11.16c.52 1.15 1 2.39 2.68 2.74a22.53 22.53 0 0 0 2.84-1.35 17.86 17.86 0 0 0 3.43-2.59c3.09-3.23 6.25-6.43 9-9.91A193.28 193.28 0 0 0 320 691.8c4.6-8 9-16.18 13.56-24.27.74-1.37 1.55-2.72 2.85-4.97ZM623 520.69a27.59 27.59 0 0 0 2.68 1.28c3.47 1.19 7 2.33 10.46 3.45 20.54 6.61 41.18 12.81 62.56 16.15a111.63 111.63 0 0 0 22 1.48 28.86 28.86 0 0 0 10.21-2.05c3.84-1.64 4.76-3.76 3.34-7.62a19.33 19.33 0 0 0-2.1-4.28 84 84 0 0 0-5.4-7.31 126.64 126.64 0 0 0-15.9-15.25c-12.68-10.55-26.26-19.85-40.11-28.76-7.8-5-15.63-10-23.43-15-.71-.46-1.87-.67-1.6-2a3.51 3.51 0 0 1 .9-.26h4.8c21.58-.07 43.17.28 64.7-1.85a131.11 131.11 0 0 0 18.91-3c2.76-.69 5.63-1.24 8.16-3.21a13.35 13.35 0 0 0-1.81-2.18 62.23 62.23 0 0 0-6.94-5.11c-5.66-3.29-11.34-6.56-17.22-9.44-19-9.3-38.82-16.42-58.57-23.8a1.77 1.77 0 0 0-2.33.36c.08.92.12 2 .29 3.11a47.64 47.64 0 0 1-.89 17.61c-3.41 15.29-11.7 27.11-25.36 35-1.09.63-2.38 1-2.75 2.81 6.89 17.1 5.07 33.77-4.6 49.87ZM596.33 73.54a15.72 15.72 0 0 0-3.24 1.1c-3.12 1.92-6.28 3.83-9.21 6a201 201 0 0 0-20.8 18.44c-17.54 17.3-33.71 35.85-49.58 54.68a18.82 18.82 0 0 0-1.43 2.26c1.07 2.22 2 4.25 3 6.23s1.28 4.63 3.18 6.77c10.89-2.18 21.75-1.82 32.26 2.62a55 55 0 0 1 25.31 21.23c6.19 9.57 8.47 20.2 8.25 31.18a4.85 4.85 0 0 0 5 1c4.42-5.71 8.94-11.51 13.41-17.34a463.32 463.32 0 0 0 28.25-40.46 140 140 0 0 0 10.51-19.89c1.56-3.83 2.72-7.83 3.91-11.8a13.81 13.81 0 0 0 .41-4.26c-.05-2.54-.93-3.47-3.39-3.8a22.61 22.61 0 0 0-8.54.77 81.27 81.27 0 0 0-15.21 5.73A228.6 228.6 0 0 0 593 148.44c-6.59 4.23-13.16 8.49-19.76 12.72-.86.55-1.83 1-3.52 1.8 1.28-3.43 2.23-6.09 3.26-8.72 5.73-14.73 11.63-29.4 16.42-44.48 2.9-9.14 5.53-18.34 6.86-27.87a23.37 23.37 0 0 0 .07-8.35ZM656.51 340c.11 1.27.17 2.22.27 3.17a52.7 52.7 0 0 1-11.88 38.35c-.89 1.06-2.25 1.91-2.07 3.49 2.29 3.19 4.72 6.18 6.71 9.44s3.48 6.73 5.24 10.21c5.4-.87 10.59-1.75 15.79-2.56 15.16-2.37 30.25-5.09 45.15-8.79 11.64-2.89 23.14-6.23 34.1-11.21a57 57 0 0 0 12-6.9 29.15 29.15 0 0 0 5.09-5c2.54-3.33 2.21-6-.76-8.93a28.68 28.68 0 0 0-8-5.25 92.15 92.15 0 0 0-16.15-5.8c-17.83-4.75-36.08-6.89-54.4-8.56-7.48-.68-15-1.17-22.48-1.64-2.71-.17-5.41-.02-8.61-.02Zm-527.06 88.8a10.66 10.66 0 0 0 .25-1.88c-1.35-15.26 2.77-28.76 12.9-40.36a13.44 13.44 0 0 0 1.21-2.07c-1.85-2.41-3.69-4.61-5.3-7s-3.17-5.11-4.84-7.83c-6.57 1.21-13 2.36-19.43 3.58-18.22 3.44-36.33 7.36-54.15 12.54-9.67 2.81-19.28 5.88-28.32 10.37a108.28 108.28 0 0 0-9.9 5.83 9.07 9.07 0 0 0-4 4.53 5.5 5.5 0 0 0 2.83 3.28 38.06 38.06 0 0 0 5.92 3.21 127.23 127.23 0 0 0 12.69 4.32c18.15 4.83 36.74 6.92 55.37 8.69 6 .58 12.1 1.07 18.16 1.55 5.41.44 10.82.82 16.61 1.24Zm24.76 61.2c-1.51 1.07-2.68 1.83-3.77 2.69q-9.19 7.29-18.35 14.64a509.21 509.21 0 0 0-38.58 33.76 168.18 168.18 0 0 0-15.41 17 51.32 51.32 0 0 0-6.87 10.92c-.81 1.87-1.9 3.73-1.16 6.13a12.76 12.76 0 0 0 2 .94 9.73 9.73 0 0 0 2.82.46c3.35-.08 6.73 0 10-.44a155.74 155.74 0 0 0 27.44-6.57c24.55-7.78 48.1-18.09 71.62-28.46.36-.16.61-.58 1.14-1.11-2.35-1.45-4.55-2.67-6.6-4.1a59.72 59.72 0 0 1-6-4.74 53.19 53.19 0 0 1-5.27-5.55 55.87 55.87 0 0 1-4.46-6.22 52.61 52.61 0 0 1-3.56-6.77 55.59 55.59 0 0 1-2.55-7.21 75.41 75.41 0 0 1-1.57-7.49c-.37-2.41-.08-4.98-.87-7.88Zm-23.67-56.4a16.59 16.59 0 0 0-2.36.73c-14.22 6.9-28.58 13.52-42.35 21.31-8.21 4.64-16.31 9.47-23.65 15.43a92.65 92.65 0 0 0-8.37 7.85 20.84 20.84 0 0 0-3.12 4.78 2.43 2.43 0 0 0 .87 3.39 25.26 25.26 0 0 0 4.64 2.42 48.51 48.51 0 0 0 12.62 2.64c12.61 1.41 25.24.79 37.81-.35 13.68-1.23 27.31-3 41-4.59 2.36-.27 4.68-.74 6.82-1.08 1.48-5.51 2.88-10.7 4.31-16-4.15-3.1-8.48-6.05-12.48-9.39a45.67 45.67 0 0 1-9.76-12.35c-2.72-4.58-4.27-9.6-5.98-14.79Z"/>
      <path d="M583.53 384.6c.33 84.61-55.51 158.71-135.07 182.86a187.42 187.42 0 0 1-64.9 8c-89.36-4.81-158-69-175.89-147.66A191.31 191.31 0 0 1 348.33 199a187 187 0 0 1 57.67-4.88c70.33 4.9 126.9 46.41 156 102a188.57 188.57 0 0 1 19.66 60.8 194.86 194.86 0 0 1 1.87 27.68Zm-278.2 137.34c3.26-3.87 6.46-7.64 9.64-11.42s6.37-7.59 9.56-11.39l9.25-11c3.19-3.8 6.32-7.64 9.58-11.38s6.05-7.75 10.42-11.75c-5.25 24.63-10.77 48.2-15.83 72l3 1.3c.82-1.54 1.58-2.92 2.29-4.33s1.41-2.87 2.11-4.3 1.4-2.87 2.11-4.31 1.57-3.14 2.35-4.72c.71-1.43 1.4-2.87 2.1-4.3L354 512c.7-1.43 1.42-2.86 2.13-4.29s1.42-2.86 2.12-4.3 1.41-2.86 2.12-4.3 1.39-2.87 2.09-4.31 1.41-2.87 2.12-4.3 1.56-3.15 2.34-4.73q1.07-2.14 2.11-4.3c.7-1.43 1.37-2.89 2.12-4.3s1.13-2.88 2.78-4.43c.61 8.56.74 16.5.89 24.43s.29 16 .49 24 .47 15.92.72 24.15l3.36.24c.45-1.68.87-3 1.18-4.44q6.82-31.36 13.66-62.73c.25-1.15.74-2.24 1.4-4.21 6.76 24.08 12.8 47.39 19.36 70.68l3-.25c.63-2.64.21-5 .22-7.41s-.08-4.79-.13-7.19-.08-4.79-.13-7.19-.11-4.8-.19-7.19-.23-4.79-.31-7.19c-.09-2.55-.15-5.11-.21-7.67-.05-2.4-.09-4.79-.13-7.19s-.09-4.8-.15-7.19-.16-4.8-.18-7.19-.47-4.65.34-7.1c12.26 20.95 23.86 42.16 35.86 63.48l3-1.52c-.68-2.6-1.28-4.91-1.9-7.21s-1.26-4.62-1.9-6.93-1.38-4.92-2.06-7.38c-.64-2.31-1.27-4.63-1.91-6.94s-1.27-4.62-1.9-6.93-1.27-4.62-1.91-6.93-1.27-4.62-1.91-6.92q-1-3.71-2.05-7.39c-.64-2.31-1.38-4.6-1.88-6.94s-1.63-4.36-1.39-7.5c1.44 1.53 2.41 2.54 3.36 3.56l42.78 46c1.08 1.17 2.13 2.39 3.3 3.47a3.1 3.1 0 0 0 2 1c.61-.06 1.14-.88 1.77-1.42-.79-1.49-1.43-2.76-2.13-4q-4.66-8.38-9.36-16.74-11.48-20.49-22.94-41c-.48-.86-1.52-1.66-.77-3.29 20.87 13.58 41.48 27.24 62.39 40.82l1.69-2.61-10.31-11-10.16-10.86L488.72 456c-3.38-3.62-6.82-7.19-10.15-10.87s-6.93-6.89-10.38-11.61c2.17.69 3.51 1.09 4.83 1.55l43.84 15.47q10.64 3.74 21.28 7.39a5.72 5.72 0 0 0 1.57 0l.89-2.05a32.17 32.17 0 0 0-5.61-4c-1.86-1.26-3.74-2.46-5.62-3.68l-5.63-3.67-5.63-3.66-5.63-3.65-5.63-3.66-5.62-3.68-5.63-3.66-5.6-3.64c-1.88-1.22-3.79-2.39-5.62-3.67s-3.81-2.14-5.37-3.8c.5-.36.73-.67.95-.66 1.92.07 3.84.12 5.74.31 8.12.8 16.23 1.68 24.34 2.48q19.1 1.89 38.2 3.72a17.44 17.44 0 0 0 3.76.04c.43 0 1-.82 1.09-1.33a1.85 1.85 0 0 0-.65-1.56 21.85 21.85 0 0 0-3.53-1.46c-8.6-3-17.21-6-25.81-9l-38-13.28c-.74-.26-1.59-.38-1.44-1.66q20.79-3 41.67-6.07c9.49-1.37 19-2.71 28.48-4.08a8.42 8.42 0 0 0 1.86-.45 1.48 1.48 0 0 0 1.09-1.85 2 2 0 0 0-1.15-1.27 45.88 45.88 0 0 0-5.22-.75q-16-1.53-32-3-17.44-1.62-34.87-3.23c-.2 0-.37-.38-.91-1 7.75-3.27 15.42-6.29 23-9.39l22.64-9.24 23-9.33a11.45 11.45 0 0 0-.17-1.73 1.23 1.23 0 0 0-.55-.74 2.54 2.54 0 0 0-1.33-.32c-3.81.48-7.61 1-11.41 1.54q-27.27 4.08-54.53 8.2c-2.12.32-4.26.51-6.83.82 1.29-2 2.92-2.74 4.31-3.75q26-18.9 52-37.75a32.58 32.58 0 0 0 3.4-2.65 1.66 1.66 0 0 0-1.39-2.57 10 10 0 0 0-2.71.86q-7.77 3.15-15.53 6.34l-47 19.28c-1 .42-2.05 1.2-3.69.74.85-1.06 1.42-1.82 2-2.54L484 309.81q13.64-16.11 27.25-32.24c1-1.17 2.34-2.16 2.52-3.74-.78-1.25-1.61-1.9-2.86-1.08s-2.61 1.85-3.9 2.79l-51.51 37.63c-1.24.9-2.54 1.71-3.82 2.56 4.78-11.47 10.27-22.38 15.67-33.34s10.91-22 16.45-33.2c-1-.65-1.74-1.14-2.69-1.78-2.82 3.32-5.51 6.47-8.18 9.63s-5.14 6.13-7.71 9.19l-8 9.56-8 9.54c-2.57 3.06-5.08 6.18-7.72 9.18s-4.95 6.57-8.83 9.68c2.78-12.6 5.4-24.43 8-36.26s5.42-23.61 7.8-35.68l-3.11-1.09c-2.88 5.53-5.47 11-8.14 16.43l-7.84 15.91c-2.68 5.45-5.33 10.91-8.06 16.33s-5 10.89-8.58 16a106.3 106.3 0 0 1-.83-11.74c-.15-4-.23-8-.31-12s-.13-8-.21-12-.16-8-.27-12-.25-8-.4-12 0-8-.35-11.88a7.08 7.08 0 0 0-1.59-.49 11.69 11.69 0 0 0-1.89.28c-.43 1.85-.85 3.54-1.22 5.25q-6.78 31.14-13.58 62.27a28.84 28.84 0 0 1-1.39 3.54l-6.48-23.87c-2.13-7.86-4.22-15.74-6.43-23.58-2.15-7.65-3.94-15.41-6.39-23a22.16 22.16 0 0 0-2.22 0c-.26 0-.5.31-1 .66v6c0 1.91.07 3.83.11 5.75 0 2.08.07 4.16.11 6.23 0 1.92.08 3.84.14 5.76q.09 3.1.21 6.23c.07 1.91.17 3.83.24 5.75s.11 4.15.15 6.23.09 4.15.13 6.23c0 1.92.06 3.84.1 5.76 0 2.07.08 4.15.15 6.23.05 1.92.16 3.83.2 5.75s.42 4-.07 6.37c-1.77-1.22-2.23-2.8-3-4.12q-15.29-27.44-30.51-54.9c-.7-1.25-1.42-2.5-2.19-3.71a1.64 1.64 0 0 0-2.12-.54 1.58 1.58 0 0 0-1.12 1.86 32.7 32.7 0 0 0 .78 3.25q8.49 31 17 61.92c.37 1.34 1 2.64.48 4.47a22.92 22.92 0 0 1-3.5-3.45L302.29 256c-1-1-1.94-2.14-3-3.09a2.26 2.26 0 0 0-1.7-.51c-.54.1-1 .69-1.58 1.15a50 50 0 0 0 3.78 7.28c1.3 2.39 2.64 4.75 4 7.12l4 7.11 4 7.12c1.4 2.51 2.81 5 4.22 7.52l4 7.11q2 3.56 4 7.11c1.33 2.37 2.68 4.73 4 7.13s2.81 4.5 3.38 7.32c-10.55-6.31-20.73-13.06-30.95-19.75-10.42-6.83-20.85-13.64-31.46-20.58l-1.98 2.54 10.29 11 10.15 10.87 10.17 10.85c3.39 3.62 6.82 7.2 10.16 10.87s6.92 7 10.53 11.76c-8.78-2.93-16.53-5.75-24.32-8.5s-15.67-5.52-23.52-8.25-15.53-5.68-23.6-8.17c-.44 1-.75 1.66-1.17 2.61 2.5 1.87 5.09 3.43 7.62 5.08l8 5.25 7.63 5 7.64 5c2.68 1.74 5.37 3.47 8.05 5.22s5.09 3.32 7.63 5 5.39 3.45 8.05 5.23a79.71 79.71 0 0 1 8.2 5.7 50.61 50.61 0 0 1-7-.35q-12.41-1.26-24.82-2.48-12.9-1.28-25.78-2.54c-5.1-.49-10.19-1-15.29-1.38-1.62-.13-2.35.47-2.45 1.6-.11 1.3.92 1.59 1.77 1.9 4.06 1.46 8.14 2.85 12.22 4.27q26.25 9.13 52.5 18.29c1.11.38 2.15.94 3.84 1.69a16 16 0 0 1-2.43.84q-13.75 2-27.53 4l-41.3 5.94a3.84 3.84 0 0 0-1.78.55 2.16 2.16 0 0 0-.75 1.58 2.38 2.38 0 0 0 1 1.43c.33.25.92.17 1.4.22 9.39.91 18.77 1.85 28.17 2.73 11.78 1.1 23.57 2.14 35.35 3.23 2.65.25 5.28.63 8.39 1-1.41 1.6-3 1.89-4.44 2.46q-24.85 10.15-49.73 20.22c-4.74 1.93-9.45 3.92-14.15 5.91-.26.1-.4.47-.73.88.28.59.59 1.27 1 2.22 8.32-1.2 16.53-2.38 24.74-3.58s16.13-2.37 24.19-3.59 16.27-2.56 25.6-3.72c-2.12 1.68-3.3 2.7-4.56 3.62l-52.42 38c-1.37 1-3 1.76-3.81 3.2.24 1.54.82 2.45 2.26 2 1.22-.36 2.38-.93 3.56-1.41l59.89-24.52a13.41 13.41 0 0 1 4.9-1.53c-2.43 3.93-5.41 6.8-8 10s-5.36 6.36-8 9.53l-8.06 9.52q-4 4.77-8 9.53c-2.68 3.18-5.43 6.3-8 9.54s-5.67 6-7.72 9.64c1.93 1.8 2 1.82 3.25 1 .8-.53 1.56-1.11 2.34-1.68l17-12.44q18.41-13.44 36.82-26.86c.91-.67 1.72-1.87 3.41-1.39-2.65 5.37-5.18 10.53-7.74 15.68q-11.49 23.19-23 46.39c-.68 1.38-1.83 2.65-1.53 4.56Z"/>
    </g>
  </g>
</svg>
